<svg height="512" viewBox="0 0 512 512" width="512" xmlns="http://www.w3.org/2000/svg"><g id="Layer_2" data-name="Layer 2"><g id="message"><path d="m256 0c-141.38 0-256 114.62-256 256s114.62 256 256 256 256-114.62 256-256-114.62-256-256-256zm-110.11 157.19h220.22a29.7 29.7 0 0 1 19.44 7.2l-129.14 78.61-120.41-84.14a29.8 29.8 0 0 1 9.89-1.67zm250.11 167.73a29.89 29.89 0 0 1 -29.89 29.89h-220.22a29.89 29.89 0 0 1 -29.89-29.89v-137.84a29.67 29.67 0 0 1 3.14-13.33l130.6 91.25a10.91 10.91 0 0 0 11.94.37l134.13-81.59a30.4 30.4 0 0 1 .19 3.33z"/></g></g></svg>